<svg xmlns="http://www.w3.org/2000/svg" width="1280" height="760" viewBox="0 0 1280 760" role="img" aria-labelledby="title desc">
  <title id="title">DreamLoop local-first dashboard</title>
  <desc id="desc">A warm paper and terminal inspired dashboard showing CLI capture, privacy status, heatmap, and recurring symbols.</desc>
  <rect width="1280" height="760" fill="#f2eee3"/>
  <g stroke="#d6cdbd" stroke-width="1" opacity=".55">
    <path d="M0 54H1280M0 108H1280M0 162H1280M0 216H1280M0 270H1280M0 324H1280M0 378H1280M0 432H1280M0 486H1280M0 540H1280M0 594H1280M0 648H1280M0 702H1280"/>
    <path d="M64 0V760M128 0V760M192 0V760M256 0V760M320 0V760M384 0V760M448 0V760M512 0V760M576 0V760M640 0V760M704 0V760M768 0V760M832 0V760M896 0V760M960 0V760M1024 0V760M1088 0V760M1152 0V760M1216 0V760"/>
  </g>
  <rect x="70" y="62" width="1140" height="636" fill="#fffdf7" stroke="#d7cfbf" stroke-width="2"/>
  <text x="110" y="122" fill="#2d332d" font-family="Georgia, serif" font-size="54" font-weight="700">DreamLoop</text>
  <text x="110" y="162" fill="#597868" font-family="Consolas, monospace" font-size="19" font-weight="700">YOUR DREAMS HAVE PATTERNS. DREAMLOOP FINDS THEM LOCALLY.</text>
  <rect x="110" y="204" width="620" height="230" fill="#21332b"/>
  <rect x="110" y="204" width="620" height="42" fill="#1b2923"/>
  <circle cx="136" cy="225" r="7" fill="#b78b3d"/>
  <circle cx="158" cy="225" r="7" fill="#4d8a6a"/>
  <circle cx="180" cy="225" r="7" fill="#4d7190"/>
  <text x="204" y="231" fill="#dce9df" font-family="Consolas, monospace" font-size="15">CLI-first capture</text>
  <text x="138" y="286" fill="#dce9df" font-family="Consolas, monospace" font-size="20">$ dreamloop add "blue door under the sea"</text>
  <text x="138" y="326" fill="#a7c8b6" font-family="Consolas, monospace" font-size="20">saved locally -> .dreamloop/dreamloop.sqlite3</text>
  <text x="138" y="366" fill="#a7c8b6" font-family="Consolas, monospace" font-size="20">provider -> ollama / qwen3:8b</text>
  <rect x="770" y="204" width="360" height="230" fill="#f8f5ed" stroke="#d7cfbf" stroke-width="2"/>
  <text x="800" y="246" fill="#597868" font-family="Consolas, monospace" font-size="16" font-weight="700">RUNTIME</text>
  <text x="800" y="292" fill="#2d332d" font-family="Consolas, monospace" font-size="22">SQLite local</text>
  <text x="800" y="330" fill="#2d332d" font-family="Consolas, monospace" font-size="22">Ollama optional</text>
  <text x="800" y="368" fill="#2d332d" font-family="Consolas, monospace" font-size="22">DeepSeek opt-in</text>
  <text x="800" y="406" fill="#2d332d" font-family="Consolas, monospace" font-size="22">Obsidian roadmap</text>
  <rect x="110" y="474" width="500" height="170" fill="#f8f5ed" stroke="#d7cfbf" stroke-width="2"/>
  <text x="140" y="518" fill="#2d332d" font-family="Georgia, serif" font-size="34" font-weight="700">Emotion heatmap</text>
  <g transform="translate(140 550)">
    <rect width="44" height="44" fill="#e9efe8" stroke="#9bad9f"/>
    <rect x="56" width="44" height="44" fill="#d8e7dc" stroke="#9bad9f"/>
    <rect x="112" width="44" height="44" fill="#bed8c8" stroke="#8aa894"/>
    <rect x="168" width="44" height="44" fill="#e9efe8" stroke="#9bad9f"/>
    <rect x="224" width="44" height="44" fill="#a8c7b4" stroke="#789f88"/>
    <rect x="280" width="44" height="44" fill="#d8e7dc" stroke="#9bad9f"/>
  </g>
  <rect x="650" y="474" width="480" height="170" fill="#f8f5ed" stroke="#d7cfbf" stroke-width="2"/>
  <text x="680" y="518" fill="#2d332d" font-family="Georgia, serif" font-size="34" font-weight="700">Recurring symbols</text>
  <line x1="680" y1="548" x2="1080" y2="548" stroke="#d7cfbf"/>
  <text x="680" y="586" fill="#2d332d" font-family="Consolas, monospace" font-size="20">water</text>
  <text x="1050" y="586" fill="#4d7190" font-family="Consolas, monospace" font-size="20">12</text>
  <text x="680" y="622" fill="#2d332d" font-family="Consolas, monospace" font-size="20">door</text>
  <text x="1050" y="622" fill="#4d7190" font-family="Consolas, monospace" font-size="20">7</text>
</svg>
